<svg xmlns="http://www.w3.org/2000/svg" width="1200" height="360" aria-labelledby="hero-title hero-desc" role="img" viewBox="0 0 1200 360"><title id="hero-title">小红书工作台 — 本地优先的自媒体 AI 工作台</title><desc id="hero-desc">暖米色横幅：左侧为项目名与「对话创作、知识库、采集、稿件管理，数据只留本机」的价值句及技能、测试、监听地址、许可四枚元信息芯片；右上方为一张小红书图文卡片示意，右下方是一条指向卡片的对话气泡。</desc><defs><linearGradient id="cover" x1="0" x2="1" y1="0" y2="1"><stop offset="0" stop-color="#E9405A"/><stop offset="1" stop-color="#F2A0AE"/></linearGradient></defs><rect width="1200" height="360" fill="#FAF6EF" rx="24"/><g id="title-block"><rect width="44" height="6" x="64" y="62" fill="#E9405A" rx="3"/><text x="64" y="104" fill="#8A7E6E" font-family="-apple-system, BlinkMacSystemFont, 'Segoe UI', 'PingFang SC', sans-serif" font-size="20" letter-spacing="3">本地优先 · 自媒体 AI 工作台</text><text x="60" y="176" fill="#2B2620" font-family="-apple-system, BlinkMacSystemFont, 'Segoe UI', 'PingFang SC', sans-serif" font-size="64" font-weight="700">小红书工作台</text><text x="64" y="222" fill="#5A5040" font-family="-apple-system, BlinkMacSystemFont, 'Segoe UI', 'PingFang SC', sans-serif" font-size="22">对话创作 · 知识库 · 采集 · 稿件管理，全部数据只留在本机</text></g><g id="meta-chips" fill="#5A5040" font-family="-apple-system, BlinkMacSystemFont, 'Segoe UI', 'PingFang SC', sans-serif" font-size="18"><g id="chip-skills"><rect width="150" height="40" x="64" y="252" fill="#FFF" stroke="#E8DFD0" rx="20"/><text x="139" y="278" text-anchor="middle">20 个内置技能</text></g><g id="chip-tests"><rect width="124" height="40" x="226" y="252" fill="#FFF" stroke="#E8DFD0" rx="20"/><text x="288" y="278" text-anchor="middle">142 项测试</text></g><g id="chip-loopback"><rect width="200" height="40" x="362" y="252" fill="#FFF" stroke="#E8DFD0" rx="20"/><circle cx="386" cy="272" r="5" fill="#E9405A"/><text x="400" y="278">仅监听 127.0.0.1</text></g><g id="chip-license"><rect width="84" height="40" x="574" y="252" fill="#FFF" stroke="#E8DFD0" rx="20"/><text x="616" y="278" text-anchor="middle">MIT</text></g></g><g id="note-card"><rect width="330" height="224" x="782" y="44" fill="#FFF" stroke="#E8DFD0" rx="16"/><rect width="290" height="118" x="802" y="64" fill="url(#cover)" rx="10"/><text x="818" y="108" fill="#FFF" font-family="-apple-system, BlinkMacSystemFont, 'Segoe UI', 'PingFang SC', sans-serif" font-size="22" font-weight="600">AI 生成的封面</text><text x="818" y="138" fill="#FFE3E8" font-family="-apple-system, BlinkMacSystemFont, 'Segoe UI', 'PingFang SC', sans-serif" font-size="18">3:4 · image_generate</text><rect width="200" height="12" x="802" y="196" fill="#EFE8DC" rx="6"/><rect width="150" height="12" x="802" y="218" fill="#EFE8DC" rx="6"/><path fill="#E9405A" d="M12 21s-8-5.5-8-11a4.5 4.5 0 0 1 8-2.8A4.5 4.5 0 0 1 20 10c0 5.5-8 11-8 11z" transform="translate(990 234) scale(0.95)"/><text x="1022" y="258" fill="#8A7E6E" font-family="-apple-system, BlinkMacSystemFont, 'Segoe UI', 'PingFang SC', sans-serif" font-size="18">收藏</text></g><g id="chat-bubble"><rect width="226" height="52" x="834" y="288" fill="#2B2620" rx="16"/><path fill="#2B2620" d="M 934 300 L 947 270 L 960 300 Z"/><text x="947" y="320" fill="#FAF6EF" font-family="-apple-system, BlinkMacSystemFont, 'Segoe UI', 'PingFang SC', sans-serif" font-size="18" text-anchor="middle">帮我把笔记写成图文</text></g></svg>